<svg width="15" height="15" viewBox="0 0 15 15" fill="none" xmlns="http://www.w3.org/2000/svg" style="fill:#ff9900;">
<path d="M3.0625 15H0.230469V4.43359H3.0625V15ZM0.0644531 1.69922C0.0644531 1.27604 0.204427 0.927734 0.484375 0.654297C0.770833 0.380859 1.1582 0.244141 1.64648 0.244141C2.12826 0.244141 2.51237 0.380859 2.79883 0.654297C3.08529 0.927734 3.22852 1.27604 3.22852 1.69922C3.22852 2.12891 3.08203 2.48047 2.78906 2.75391C2.5026 3.02734 2.12174 3.16406 1.64648 3.16406C1.17122 3.16406 0.787109 3.02734 0.494141 2.75391C0.207682 2.48047 0.0644531 2.12891 0.0644531 1.69922ZM7.99414 4.43359L8.08203 5.6543C8.83724 4.71029 9.84961 4.23828 11.1191 4.23828C12.2389 4.23828 13.0723 4.56706 13.6191 5.22461C14.166 5.88216 14.446 6.86523 14.459 8.17383V15H11.6367V8.24219C11.6367 7.64323 11.5065 7.21029 11.2461 6.94336C10.9857 6.66992 10.5527 6.5332 9.94727 6.5332C9.15299 6.5332 8.55729 6.87174 8.16016 7.54883V15H5.33789V4.43359H7.99414Z" fill="white"/>
</svg>
