<svg width="55" height="50" viewBox="0 0 55 50" fill="none" xmlns="http://www.w3.org/2000/svg" style="cursor: pointer;">
<path d="M1 20.2945L1 40.2945" stroke="#00A2FF" stroke-width="2" stroke-linecap="round"/>
<path d="M1 40.2945H8" stroke="#00A2FF" stroke-width="2" stroke-linecap="round"/>
<path d="M8 40.2945L17.9376 48.4172" stroke="#00A2FF" stroke-width="2" stroke-linecap="round"/>
<path d="M18.5 48.7945H45" stroke="#00A2FF" stroke-width="2" stroke-linecap="round"/>
<path d="M45.5 48.7945C47.7742 47.5945 48.5323 44.0945 45.5 42.2945" stroke="#00A2FF" stroke-width="2" stroke-linecap="round"/>
<path d="M46.5 41.7945C49.5 40.7945 49.7071 37.9763 48.5 35.7945" stroke="#00A2FF" stroke-width="2" stroke-linecap="round"/>
<path d="M48.5 34.7945C51 34.2945 52.5 29.2945 50 27.7945" stroke="#00A2FF" stroke-width="2" stroke-linecap="round"/>
<path d="M51 26.7945C51 26.7945 55.5 24.2945 52 19.7945" stroke="#00A2FF" stroke-width="2" stroke-linecap="round"/>
<path d="M51.4208 19.304L40.6583 19.304L30.4938 19.304" stroke="#00A2FF" stroke-width="2" stroke-linecap="round"/>
<path d="M31 18.2945C32.4157 15.2945 34.5843 9.79452 32 4.29453" stroke="#00A2FF" stroke-width="2" stroke-linecap="round"/>
<path d="M32 4.29453C31.4999 1.29453 26 -0.205493 26.5 3.7945" stroke="#00A2FF" stroke-width="2" stroke-linecap="round"/>
<path d="M26.5 4.29454C27.7287 6.48796 23.8048 16.126 23.5 15.2945" stroke="#00A2FF" stroke-width="2" stroke-linecap="round"/>
<path d="M23.3188 15.5553C23.3188 15.5553 17.9375 19.8956 10.7626 19.8956" stroke="#00A2FF" stroke-width="2" stroke-linecap="round"/>
<path d="M11.5 19.7945H1.5" stroke="#00A2FF" stroke-width="2" stroke-linecap="round"/>
<path d="M50 27.2945H46" stroke="#00A2FF" stroke-width="2" stroke-linecap="round"/>
<path d="M48 34.7945H44.5" stroke="#00A2FF" stroke-width="2" stroke-linecap="round"/>
<path d="M46 42.2945H44H42" stroke="#00A2FF" stroke-width="2" stroke-linecap="round"/>
</svg>
