<svg width="100" height="40" viewBox="0 0 100 40" fill="none" xmlns="http://www.w3.org/2000/svg">
<path d="M19.1562 24.4844H12.9922L11.8203 28H8.08203L14.4336 10.9375H17.6914L24.0781 28H20.3398L19.1562 24.4844ZM13.9414 21.6367H18.207L16.0625 15.25L13.9414 21.6367ZM36.875 21.7773C36.875 23.8086 36.4414 25.3945 35.5742 26.5352C34.707 27.668 33.4961 28.2344 31.9414 28.2344C30.5664 28.2344 29.4688 27.707 28.6484 26.6523L28.4961 28H25.4492V10H28.8359V16.457C29.6172 15.543 30.6445 15.0859 31.918 15.0859C33.4648 15.0859 34.6758 15.6562 35.5508 16.7969C36.4336 17.9297 36.875 19.5273 36.875 21.5898V21.7773ZM33.4883 21.5312C33.4883 20.25 33.2852 19.3164 32.8789 18.7305C32.4727 18.1367 31.8672 17.8398 31.0625 17.8398C29.9844 17.8398 29.2422 18.2812 28.8359 19.1641V24.168C29.25 25.0586 30 25.5039 31.0859 25.5039C32.1797 25.5039 32.8984 24.9648 33.2422 23.8867C33.4062 23.3711 33.4883 22.5859 33.4883 21.5312ZM38.4453 21.543C38.4453 20.2852 38.6875 19.1641 39.1719 18.1797C39.6562 17.1953 40.3516 16.4336 41.2578 15.8945C42.1719 15.3555 43.2305 15.0859 44.4336 15.0859C46.1445 15.0859 47.5391 15.6094 48.6172 16.6562C49.7031 17.7031 50.3086 19.125 50.4336 20.9219L50.457 21.7891C50.457 23.7344 49.9141 25.2969 48.8281 26.4766C47.7422 27.6484 46.2852 28.2344 44.457 28.2344C42.6289 28.2344 41.168 27.6484 40.0742 26.4766C38.9883 25.3047 38.4453 23.7109 38.4453 21.6953V21.543ZM41.832 21.7891C41.832 22.9922 42.0586 23.9141 42.5117 24.5547C42.9648 25.1875 43.6133 25.5039 44.457 25.5039C45.2773 25.5039 45.918 25.1914 46.3789 24.5664C46.8398 23.9336 47.0703 22.9258 47.0703 21.543C47.0703 20.3633 46.8398 19.4492 46.3789 18.8008C45.918 18.1523 45.2695 17.8281 44.4336 17.8281C43.6055 17.8281 42.9648 18.1523 42.5117 18.8008C42.0586 19.4414 41.832 20.4375 41.832 21.7891ZM60.1367 26.7109C59.3008 27.7266 58.1445 28.2344 56.668 28.2344C55.3086 28.2344 54.2695 27.8438 53.5508 27.0625C52.8398 26.2812 52.4766 25.1367 52.4609 23.6289V15.3203H55.8477V23.5117C55.8477 24.832 56.4492 25.4922 57.6523 25.4922C58.8008 25.4922 59.5898 25.0938 60.0195 24.2969V15.3203H63.418V28H60.2305L60.1367 26.7109ZM70.0273 12.2031V15.3203H72.1953V17.8047H70.0273V24.1328C70.0273 24.6016 70.1172 24.9375 70.2969 25.1406C70.4766 25.3438 70.8203 25.4453 71.3281 25.4453C71.7031 25.4453 72.0352 25.418 72.3242 25.3633V27.9297C71.6602 28.1328 70.9766 28.2344 70.2734 28.2344C67.8984 28.2344 66.6875 27.0352 66.6406 24.6367V17.8047H64.7891V15.3203H66.6406V12.2031H70.0273Z" fill="white"/>
<path d="M85.6318 28.0193L77.337 14.5009L94.0198 14.5586L85.6318 28.0193Z" fill="white"/>
<rect x="1" y="1" width="98" height="38" stroke="white" stroke-width="2" stroke-miterlimit="16" stroke-linecap="round"/>
</svg>
