<svg width="23" height="22" viewBox="0 0 23 22" fill="none" xmlns="http://www.w3.org/2000/svg">
<path d="M13.2223 10.2079C13.2223 10.2079 19.7223 9.20786 21.2223 10.2079C22.7223 11.2079 22.2223 19.2079 21.2223 20.7079C20.2223 22.2079 13.7223 22.7079 13.2223 20.2079C12.7223 17.7079 13.2223 10.2079 13.2223 10.2079Z" fill="#5474FD"/>
<path d="M3.22228 10.2079C3.22228 10.2079 9.72228 9.20786 11.2223 10.2079C12.7223 11.2079 12.2223 19.2079 11.2223 20.7079C10.2223 22.2079 3.72229 22.7079 3.22228 20.2079C2.72228 17.7079 3.22228 10.2079 3.22228 10.2079Z" fill="#5474FD"/>
<path d="M14.7837 10.5637C14.7837 10.5637 14.7837 3.0637 19.2837 4.06365" stroke="#5474FD" stroke-width="3" stroke-linecap="round"/>
<path d="M4.78367 10.5637C4.78367 10.5637 4.78372 3.0637 9.28372 4.06365" stroke="#5474FD" stroke-width="3" stroke-linecap="round"/>
</svg>
