<svg width="13" height="13" viewBox="0 0 13 13" fill="none" xmlns="http://www.w3.org/2000/svg">
<path fill-rule="evenodd" clip-rule="evenodd" d="M13 6.5C13 10.0899 10.0899 13 6.5 13C6.3402 13 6.18174 12.9942 6.02483 12.9829L6.66054 9.99638C8.51902 9.91248 10 8.37919 10 6.5C10 4.567 8.433 3 6.5 3C4.567 3 3 4.567 3 6.5C3 8.14309 4.13221 9.52173 5.65901 9.89831L5.03411 12.834C2.15024 12.1693 0 9.58576 0 6.5C0 2.91015 2.91015 0 6.5 0C10.0899 0 13 2.91015 13 6.5ZM6.8787 8.9715L7.48906 6.10409L6.51097 5.89589L5.86741 8.91927C4.793 8.63912 4 7.66217 4 6.5C4 5.11929 5.11929 4 6.5 4C7.88071 4 9 5.11929 9 6.5C9 7.75197 8.07971 8.789 6.8787 8.9715Z" fill="white"/>
</svg>
